<svg width="272" height="203" xmlns="http://www.w3.org/2000/svg"><g clip-path="url(#clip0_167_909)"><path fill="#0B3E70" d="M0 0H272V203H0z"/><use href="#vector" x="87" y="-26"/><use href="#vector" x="146" y="-15"/><use href="#vector" x="203" y="-5"/><use href="#vector" x="260" y="7"/><use href="#vector" x="-12" y="6"/><use href="#vector" x="45" y="17"/><use href="#vector" x="103" y="28"/><use href="#vector" x="161" y="38"/><use href="#vector" x="218" y="48"/><use href="#vector" x="3" y="59"/><use href="#vector" x="60" y="70"/><use href="#vector" x="118" y="81"/><use href="#vector" x="176" y="91"/><use href="#vector" x="233" y="102"/><use href="#vector" x="18" y="113"/><use href="#vector" x="76" y="123"/><use href="#vector" x="133" y="134"/><use href="#vector" x="191" y="145"/><use href="#vector" x="248" y="155"/><use href="#vector" x="-24" y="156"/><use href="#vector" x="34" y="166"/><use href="#vector" x="88" y="177"/><use href="#vector" x="146" y="188"/><use href="#vector" x="202" y="198"/></g><defs><g id="vector"><path d="M18.9333 26.2667C12.7333 26.2667 7.66663 21.2001 7.66663 15.0001C7.66663 8.80006 12.7333 3.7334 18.9333 3.7334V5.20007C13.5333 5.20007 9.19996 9.60006 9.19996 14.9334C9.19996 20.3334 13.6 24.6667 18.9333 24.6667V26.2667Z" fill="#0D457E"/><path d="M33.9333 14.2667C33.5333 6.33333 26.9999 0 18.9333 0C10.6666 0 3.93328 6.73333 3.93328 15C3.93328 23.2667 10.6666 30 18.9333 30C26.9333 30 33.5333 23.6667 33.9333 15.7333H36.1999C35.7999 24.8667 28.1999 32.2 18.9333 32.2C9.39995 32.2 1.66662 24.4667 1.66662 14.9333H0.199951C0.199951 25.2667 8.59995 33.6667 18.9333 33.6667C29.2666 33.6667 37.6666 25.2667 37.6666 14.9333V14.2H33.9333V14.2667ZM18.9333 28.5333C11.4666 28.5333 5.46662 22.4667 5.46662 15.0667C5.46662 7.6 11.5333 1.6 18.9333 1.6C26.1333 1.6 31.9999 7.26667 32.3999 14.3333H20.0666V15.8H32.3999C31.9999 22.8667 26.1333 28.5333 18.9333 28.5333Z" fill="#0D457E"/></g><clipPath id="clip0_167_909"><path fill="white" d="M0 0H272V203H0z"/></clipPath></defs></svg>